<svg xmlns="http://www.w3.org/2000/svg" width="1346.643" height="432.407" viewBox="0 0 1346.643 432.407">
  <g id="Group_113" data-name="Group 113" transform="translate(-1.917 2.2)">
    <path id="Path_102" data-name="Path 102" d="M343.242,60.409A204.207,204.207,0,0,0,4.417,214.162,204.145,204.145,0,0,0,208.471,418.216,201.4,201.4,0,0,0,317.617,386.58C374.878,350.2,407.148,279.649,438.151,211,469.787,141.714,502.056,70.216,560.9,33.2A214.188,214.188,0,0,1,826.329,62.94a210.343,210.343,0,0,1,37.647,50.934" transform="translate(0 0)" fill="none" stroke="#fff" stroke-miterlimit="10" stroke-width="5"/>
    <path id="Path_103" data-name="Path 103" d="M154.2,296.1c1.9,4.429,3.8,8.542,6.011,12.655a206.941,206.941,0,0,0,36.382,49.669A204,204,0,0,0,450,386.58c56.313-35.433,88.265-105.665,118.953-173.683C600.589,142.98,633.49,70.849,693.283,33.2A214.188,214.188,0,0,1,958.712,62.94,210.234,210.234,0,0,1,1021.985,212.9v.949A213.952,213.952,0,0,1,678.1,383.732c-3.8-2.847-7.276-6.011-11.073-9.175" transform="translate(324.075 0)" fill="none" stroke="#fff" stroke-miterlimit="10" stroke-width="5"/>
  </g>
</svg>
